# xmcd
#
# Track frame offsets:
#	150
#	25190
#	52618
#	76466
#	97274
#	118800
#
# Disc length: 1853 seconds
#
# Revision: 1
# Processed by: cddbd v1.5.1PL0 Copyright (c) Steve Scherf et al.
# Submitted via: EasyCDDAExtractor 7.0.6.1
#
DISCID=44073b06
DTITLE=Mike Riley's Brotherhood of Eternal Blues - Self Titled
DYEAR=2000
DGENRE=Blues
TTITLE0=Who's Been Sleeping in My Bed
TTITLE1=Black Widow
TTITLE2=Back on the Road To Texas
TTITLE3=Back to Basics
TTITLE4=Shakey Ground
TTITLE5=Who's Reen Sleeping in My Bed(Radio Version)
EXTD=
EXTT0=
EXTT1=
EXTT2=
EXTT3=
EXTT4=
EXTT5=
PLAYORDER=
